<svg xmlns="http://www.w3.org/2000/svg" width="100" height="100" viewBox="0 0 100 100" version="1.1"><path d="M 22.687 3.750 C 23.030 4.713, 23.656 5.954, 24.077 6.509 C 25.261 8.065, 28 20.705, 28 24.609 C 28 27.433, 27.433 28.416, 25.006 29.797 C 23.360 30.733, 22.010 31.988, 22.006 32.583 C 21.997 34.123, 24.813 33.930, 25.419 32.350 C 25.710 31.593, 26.627 31.303, 27.577 31.668 C 28.883 32.169, 29.112 33.168, 28.666 36.424 C 28.004 41.247, 29.040 43.861, 30.782 41.763 C 31.535 40.856, 31.594 39.168, 30.967 36.466 C 29.740 31.171, 29.757 19.771, 30.997 16.508 C 31.660 14.765, 31.660 14.092, 30.997 14.502 C 30.449 14.841, 30 14.615, 30 14 C 30 13.385, 29.607 13.125, 29.126 13.422 C 28.646 13.719, 27.498 11.270, 26.575 7.981 C 25.535 4.277, 24.357 2, 23.480 2 C 22.559 2, 22.281 2.613, 22.687 3.750 M 42.638 3.500 C 42.955 4.325, 42.753 5, 42.190 5 C 41.627 5, 40.977 4.437, 40.746 3.750 C 40.286 2.385, 38.267 14.748, 37.301 24.840 C 36.925 28.766, 36.181 31.377, 35.347 31.697 C 34.606 31.981, 34 32.664, 34 33.214 C 34 33.764, 34.726 33.935, 35.614 33.595 C 36.972 33.073, 37.126 33.515, 36.587 36.389 C 35.468 42.352, 40.477 45.254, 43.617 40.462 C 46.150 36.596, 48.224 26.762, 46.710 25.800 C 45.810 25.228, 45.854 25.027, 46.882 25.015 C 49.093 24.991, 47.841 11.524, 45.138 6.250 C 43.039 2.155, 41.452 0.410, 42.638 3.500 M 75 6.437 C 75 7.970, 75.428 8.853, 76 8.500 C 76.631 8.110, 77 10.545, 77 15.108 C 77 24.689, 77.903 23.425, 78.519 12.981 C 78.789 8.403, 78.712 4.955, 78.347 5.320 C 77.982 5.684, 77.080 5.481, 76.342 4.869 C 75.276 3.984, 75 4.307, 75 6.437 M 83.885 5.317 C 83.311 11.225, 84.424 20.052, 86.177 23.483 C 88.357 27.751, 88.727 31.143, 87.709 37.500 L 87.068 41.500 88.672 38 C 91.012 32.894, 90.661 27.284, 87.630 21.355 C 86.184 18.525, 85 15.319, 85 14.230 C 85 10.162, 86.293 6, 87.558 6 C 89.382 6, 90.310 9.535, 89.550 13.587 C 89.191 15.501, 89.321 17, 89.848 17 C 91.971 17, 92.808 9.379, 91.047 6.088 C 89.967 4.070, 84.068 3.435, 83.885 5.317 M 13.180 7.337 C 13.848 8.585, 13.983 12.458, 13.548 17.904 C 13.171 22.632, 12.760 28.750, 12.634 31.500 C 12.499 34.447, 11.604 37.716, 10.453 39.461 C 9.379 41.090, 9.029 42.097, 9.675 41.699 C 10.321 41.300, 12.058 41.525, 13.535 42.198 C 15.864 43.259, 16.403 43.169, 17.610 41.519 C 19.154 39.407, 19.518 35.562, 18.090 36.444 C 17.590 36.753, 16.436 36.721, 15.525 36.371 C 13.075 35.431, 13.822 29.069, 16.707 26.298 C 19.532 23.584, 19.659 20.985, 17 20.290 C 14.849 19.727, 14.665 18.923, 15.610 14.199 C 16.043 12.033, 16.653 11.313, 17.711 11.719 C 19.493 12.403, 20.964 10.374, 20.985 7.204 C 20.999 5.118, 20.595 4.929, 16.563 5.138 C 12.485 5.349, 12.212 5.527, 13.180 7.337 M 55.250 5.736 C 54.394 6.031, 54 8.621, 54 13.958 C 54 18.244, 53.708 23.211, 53.351 24.997 L 52.701 28.244 51.386 25.872 C 49.377 22.248, 49.616 26.127, 51.667 30.428 C 53.194 33.630, 53.202 34.257, 51.768 37.908 C 50.329 41.571, 50.336 41.922, 51.852 42.257 C 52.758 42.457, 54.701 42.225, 56.169 41.741 C 60.497 40.314, 62.369 34.418, 62.675 21.249 C 62.819 15.061, 62.690 9.355, 62.388 8.569 C 61.761 6.936, 57.118 5.093, 55.250 5.736 M 69.907 5 C 69.840 5.275, 69.635 9.162, 69.453 13.638 C 68.833 28.848, 68.157 37.937, 67.574 38.880 C 66.614 40.434, 68.094 43, 69.952 43 C 72.671 43, 75.011 39.685, 76.608 33.571 C 77.631 29.651, 77.770 27.433, 77.067 26.227 C 76.278 24.872, 76.054 25.423, 76.030 28.782 C 76.014 31.137, 75.325 34.680, 74.500 36.654 C 73.191 39.787, 72.795 40.075, 71.395 38.913 C 69.755 37.551, 69.758 36.822, 71.513 11.926 C 71.690 9.410, 71.429 6.710, 70.933 5.926 C 70.437 5.142, 69.975 4.725, 69.907 5 M 32.750 6.572 C 32.337 6.991, 32.014 8.721, 32.030 10.417 C 32.056 13.027, 32.220 13.227, 33.096 11.721 C 34.239 9.757, 33.944 5.359, 32.750 6.572 M 41.086 7.750 C 41.066 8.713, 40.621 11.975, 40.097 15 C 39.013 21.267, 38.697 37.046, 39.607 39.418 C 40.595 41.992, 41.999 41.246, 43.663 37.264 C 45.764 32.236, 46.668 13.027, 44.994 8.985 C 43.647 5.733, 41.147 4.943, 41.086 7.750 M 56.639 8.499 C 56.041 10.055, 54.595 28.560, 54.534 35.414 C 54.516 37.566, 55.027 39.504, 55.671 39.721 C 56.415 39.971, 56.685 39.272, 56.410 37.807 C 56.172 36.538, 56.245 36.063, 56.572 36.750 C 59.921 43.793, 63.905 18.494, 60.667 10.744 C 59.017 6.797, 57.596 6.005, 56.639 8.499 M 75.158 15 C 75.158 16.375, 75.385 16.938, 75.662 16.250 C 75.940 15.563, 75.940 14.438, 75.662 13.750 C 75.385 13.063, 75.158 13.625, 75.158 15 M 84 26 C 84 26.733, 84.300 27.033, 84.667 26.667 C 85.033 26.300, 85.033 25.700, 84.667 25.333 C 84.300 24.967, 84 25.267, 84 26 M 9 31 C 9 31.733, 9.300 32.033, 9.667 31.667 C 10.033 31.300, 10.033 30.700, 9.667 30.333 C 9.300 29.967, 9 30.267, 9 31 M 42.500 31 C 42.840 31.550, 43.343 32, 43.618 32 C 43.893 32, 43.840 31.550, 43.500 31 C 43.160 30.450, 42.657 30, 42.382 30 C 42.107 30, 42.160 30.450, 42.500 31 M 82.135 31 C 82.017 31.275, 81.777 33.839, 81.601 36.697 C 81.365 40.534, 81.660 42.039, 82.731 42.450 C 84.951 43.302, 86.338 41.975, 84.607 40.654 C 83.775 40.019, 82.926 37.475, 82.722 35 C 82.517 32.525, 82.253 30.725, 82.135 31 M 21.667 39.667 C 21.300 40.033, 21 40.798, 21 41.367 C 21 41.993, 21.466 41.934, 22.183 41.217 C 22.834 40.566, 23.134 39.801, 22.850 39.517 C 22.566 39.233, 22.033 39.300, 21.667 39.667 M 42.459 54.067 C 42.096 54.653, 42.014 55.348, 42.276 55.610 C 42.538 55.872, 43.019 55.392, 43.345 54.543 C 44.021 52.781, 43.445 52.471, 42.459 54.067 M 48.244 54.500 C 48.420 55.050, 49.190 56.750, 49.955 58.277 C 50.944 60.252, 51.036 61.364, 50.274 62.126 C 49.512 62.888, 49.009 62.319, 48.534 60.156 C 48.074 58.058, 47.418 57.286, 46.422 57.668 C 45.360 58.076, 45.156 57.729, 45.651 56.361 C 46.153 54.973, 45.702 55.154, 43.872 57.076 C 41.101 59.985, 40.957 62.779, 43.295 68.250 C 45.044 72.341, 46.075 72.820, 48.039 70.453 C 48.977 69.323, 49.519 69.222, 50.050 70.081 C 50.449 70.727, 51.277 70.947, 51.888 70.569 C 53.135 69.798, 53.410 67.935, 52.250 68.118 C 50.295 68.427, 49.987 67.870, 51.357 66.500 C 52.182 65.675, 53.339 65, 53.929 65 C 54.518 65, 55 64.550, 55 64 C 55 63.450, 54.523 63, 53.941 63 C 53.359 63, 53.165 62.543, 53.510 61.984 C 53.856 61.425, 54.557 61.226, 55.069 61.543 C 55.581 61.859, 56 61.191, 56 60.059 C 56 58.558, 55.356 58, 53.622 58 C 52.314 58, 50.497 56.987, 49.584 55.750 C 48.670 54.513, 48.067 53.950, 48.244 54.500 M 51.333 55.667 C 51.700 56.033, 52.300 56.033, 52.667 55.667 C 53.033 55.300, 52.733 55, 52 55 C 51.267 55, 50.967 55.300, 51.333 55.667 M 54.813 55.683 C 55.534 55.972, 56.397 55.936, 56.729 55.604 C 57.061 55.272, 56.471 55.036, 55.417 55.079 C 54.252 55.127, 54.015 55.364, 54.813 55.683 M 44 59.833 C 44 60.292, 44.675 60.667, 45.500 60.667 C 46.325 60.667, 47 60.292, 47 59.833 C 47 59.375, 46.325 59, 45.500 59 C 44.675 59, 44 59.375, 44 59.833 M 46 66 C 46 66.733, 46.300 67.033, 46.667 66.667 C 47.033 66.300, 47.033 65.700, 46.667 65.333 C 46.300 64.967, 46 65.267, 46 66 M 46 69 C 46 69.733, 46.300 70.033, 46.667 69.667 C 47.033 69.300, 47.033 68.700, 46.667 68.333 C 46.300 67.967, 46 68.267, 46 69 M 0.552 90.750 C 0.894 99.480, 0.789 99, 2.353 99 C 3.374 99, 3.589 97.773, 3.226 94 C 2.848 90.064, 3.056 89, 4.205 89 C 5.367 89, 5.569 90.149, 5.197 94.643 C 4.860 98.696, 5.049 100.088, 5.864 99.584 C 6.489 99.198, 7.007 98.121, 7.015 97.191 C 7.024 96.261, 7.473 94.825, 8.014 94 C 8.719 92.924, 8.828 93.385, 8.398 95.629 C 7.767 98.919, 9.581 101.296, 10.987 99.021 C 11.530 98.143, 11.947 98.106, 12.434 98.893 C 12.810 99.502, 13.817 100, 14.670 100 C 15.895 100, 16.088 99.280, 15.583 96.593 C 15.168 94.378, 15.352 93.049, 16.108 92.797 C 16.961 92.513, 16.908 91.825, 15.911 90.229 C 14.710 88.307, 14.783 87.868, 16.525 86.509 C 18.354 85.083, 18 84.983, 11.750 85.151 C 8.038 85.252, 4.700 85.033, 4.333 84.667 C 3.967 84.300, 2.907 84, 1.978 84 C 0.533 84, 0.327 84.977, 0.552 90.750 M 21.136 85.699 C 17.820 89.249, 19.704 102.630, 23.055 99.328 C 23.709 98.684, 24.825 98.379, 25.534 98.652 C 26.244 98.924, 27.042 98.326, 27.307 97.323 C 27.744 95.668, 27.851 95.694, 28.471 97.600 C 28.952 99.078, 30.035 99.725, 32.127 99.785 C 36.199 99.900, 37.940 95.828, 35.596 91.669 C 33.720 88.342, 33.580 87, 35.107 87 C 35.716 87, 35.944 87.704, 35.613 88.565 C 35.156 89.756, 35.476 89.984, 36.949 89.516 C 38.711 88.957, 38.850 89.328, 38.499 93.638 C 38.287 96.243, 38.302 98.679, 38.533 99.053 C 39.353 100.381, 44 98.760, 44.035 97.133 C 44.060 95.979, 44.459 96.199, 45.393 97.885 C 47.212 101.167, 47.653 99.662, 47.206 91.696 C 46.949 87.106, 46.446 85.018, 45.662 85.279 C 45.023 85.492, 44.493 86.079, 44.485 86.583 C 44.476 87.088, 44.081 88.113, 43.607 88.862 C 43.120 89.630, 43.127 90.502, 43.622 90.862 C 44.831 91.740, 45.280 94.291, 44.097 93.560 C 43.573 93.236, 42.807 93.990, 42.396 95.235 L 41.647 97.500 40.962 95 C 40.540 93.460, 40.829 91.605, 41.715 90.169 C 43.909 86.611, 42.736 85.167, 37.651 85.167 C 33.756 85.167, 33.097 85.479, 32.571 87.575 C 32.238 88.899, 32.626 91.562, 33.432 93.492 C 34.238 95.421, 34.471 97, 33.949 97 C 33.427 97, 32.993 96.213, 32.985 95.250 C 32.972 93.754, 32.828 93.718, 32 95 C 31.022 96.513, 30.816 95.494, 30.579 88 C 30.441 83.618, 27.653 85.047, 26.676 90 C 25.851 94.184, 24.675 95.947, 22.685 95.985 C 21.732 96.003, 22.292 87.375, 23.310 86.357 C 23.689 85.977, 24 86.642, 24 87.833 C 24 89.025, 24.388 90, 24.861 90 C 26.108 90, 25.008 85.217, 23.641 84.692 C 23.008 84.449, 21.880 84.903, 21.136 85.699 M 64.841 84.549 C 63.994 86.082, 65.140 100, 66.113 100 C 66.601 100, 67.047 99.438, 67.104 98.750 C 67.162 98.063, 67.311 95.913, 67.436 93.972 C 67.560 92.032, 68.514 89.146, 69.554 87.558 L 71.445 84.671 68.805 85.334 C 67.120 85.757, 66.021 85.563, 65.766 84.798 C 65.543 84.128, 65.134 84.018, 64.841 84.549 M 82.639 84.694 C 82.288 85.046, 81.947 86.496, 81.882 87.917 C 81.769 90.386, 81.732 90.368, 81.041 87.500 L 80.319 84.500 79.160 87.315 C 78.522 88.863, 78 91.178, 78 92.458 C 78 95.221, 75.282 96.694, 74.796 94.195 C 74.615 93.263, 74.663 90.925, 74.904 89 C 75.311 85.747, 75.391 85.676, 76.033 88 C 76.645 90.210, 76.814 90.289, 77.495 88.683 C 78.709 85.819, 76.452 84.281, 74.126 86.386 C 70.527 89.643, 71.234 100, 75.055 100 C 75.610 100, 76.471 98.987, 76.969 97.750 L 77.873 95.500 77.937 97.719 C 78.026 100.848, 80.513 99.616, 80.787 96.306 C 81.134 92.113, 82 92.275, 82 96.533 C 82 101.499, 83.721 99.954, 84.265 94.500 L 84.664 90.500 84.832 94.750 C 84.986 98.637, 85.235 99.013, 87.750 99.156 C 98.333 99.757, 100.255 98.376, 99.793 90.500 C 99.542 86.224, 99.182 85.455, 97.307 85.188 C 95.123 84.877, 94.731 85.820, 93.683 93.917 C 93.583 94.697, 92.997 95.502, 92.383 95.706 C 91.613 95.962, 91.404 94.317, 91.711 90.430 C 92.057 86.039, 91.861 84.879, 90.828 85.218 C 90.026 85.482, 89.253 88.002, 88.878 91.578 L 88.256 97.500 88.210 91.500 C 88.146 83.126, 88.186 83.222, 85.885 86 C 84.580 87.576, 84.017 87.865, 84.363 86.782 C 84.934 84.999, 83.758 83.575, 82.639 84.694 M 49.552 88.250 C 49.728 90.037, 49.901 93.188, 49.936 95.250 C 49.971 97.313, 50.450 99, 51 99 C 51.550 99, 52 98.325, 52 97.500 C 52 96.675, 52.498 96, 53.107 96 C 53.716 96, 53.955 96.675, 53.638 97.500 C 53.302 98.377, 53.624 99, 54.413 99 C 55.675 99, 58 92.194, 58 88.498 C 58 85.785, 56.010 87.932, 55.858 90.809 C 55.754 92.777, 55.540 92.426, 55.060 89.500 L 54.403 85.500 52.783 89 L 51.163 92.500 51.082 88.750 C 51.037 86.688, 50.602 85, 50.116 85 C 49.630 85, 49.376 86.463, 49.552 88.250 M 60.460 86.065 C 60.098 86.651, 60.103 88.736, 60.471 90.699 C 61.016 93.600, 60.865 94.162, 59.669 93.703 C 58.724 93.341, 57.988 93.920, 57.612 95.319 C 56.747 98.545, 56.853 99, 58.469 99 C 59.363 99, 59.712 98.414, 59.362 97.500 C 59.045 96.675, 59.232 96, 59.776 96 C 60.321 96, 61.029 97.005, 61.351 98.233 C 62.351 102.056, 64.001 98.937, 63.097 94.931 C 62.655 92.970, 62.503 89.933, 62.760 88.182 C 63.215 85.084, 61.845 83.824, 60.460 86.065 M 8.158 89 C 8.158 90.375, 8.385 90.938, 8.662 90.250 C 8.940 89.563, 8.940 88.438, 8.662 87.750 C 8.385 87.063, 8.158 87.625, 8.158 89 M 97.158 90 C 97.158 91.375, 97.385 91.938, 97.662 91.250 C 97.940 90.563, 97.940 89.438, 97.662 88.750 C 97.385 88.063, 97.158 88.625, 97.158 90 M 11.272 93 C 11.272 95.475, 11.467 96.487, 11.706 95.250 C 11.944 94.013, 11.944 91.987, 11.706 90.750 C 11.467 89.513, 11.272 90.525, 11.272 93 M 96 95 C 96 96.100, 96.173 97, 96.383 97 C 96.594 97, 97.002 96.100, 97.290 95 C 97.577 93.900, 97.405 93, 96.906 93 C 96.408 93, 96 93.900, 96 95" stroke="none" fill="#903145" fill-rule="evenodd"/><path d="M 41.500 1.658 C 38.200 2.429, 34.825 3.221, 34 3.418 C 33.175 3.615, 31.038 4.375, 29.252 5.107 C 26.685 6.158, 26.136 6.853, 26.634 8.422 C 26.980 9.514, 27.879 11.022, 28.632 11.775 C 29.384 12.527, 30 13.587, 30 14.130 C 30 14.674, 30.449 14.841, 30.997 14.502 C 31.660 14.092, 31.660 14.765, 30.997 16.508 C 29.506 20.429, 29.732 21.214, 32 20 C 33.425 19.238, 34 19.240, 34 20.007 C 34 20.599, 33.100 22.050, 32 23.230 C 29.808 25.583, 29.465 29.985, 30.967 36.466 C 31.594 39.168, 31.535 40.856, 30.782 41.763 C 29.040 43.861, 28.004 41.247, 28.666 36.424 C 29.104 33.223, 28.876 32.166, 27.642 31.693 C 26.698 31.331, 25.649 31.777, 25.057 32.792 C 24.509 33.731, 24.047 34.107, 24.030 33.628 C 24.014 33.148, 23.330 33.311, 22.512 33.990 C 19.919 36.142, 19.535 32.401, 21.976 28.759 L 24.160 25.500 23.520 28.412 C 22.894 31.262, 22.930 31.291, 25.190 29.798 C 26.493 28.938, 27.647 27.025, 27.838 25.409 C 28.507 19.750, 23.873 3, 21.639 3 C 21.150 3, 21.032 4.411, 21.377 6.136 C 21.921 8.853, 21.537 9.671, 18.502 12.263 C 16.324 14.124, 15 16.151, 15 17.627 C 15 20.648, 15.790 20.610, 19.500 17.412 C 22.106 15.165, 22.546 15.051, 22.848 16.543 C 23.040 17.488, 22.590 18.645, 21.848 19.115 C 21.107 19.585, 20.833 19.976, 21.240 19.985 C 22.035 20.001, 19.773 23.046, 16.457 26.421 C 13.813 29.113, 13.216 35.485, 15.525 36.371 C 16.436 36.721, 17.590 36.753, 18.090 36.444 C 19.506 35.569, 19.160 39.399, 17.634 41.486 C 16.418 43.149, 15.924 43.211, 13.134 42.056 C 9.700 40.633, 9.391 40.009, 11.215 38.185 C 11.883 37.517, 12.520 34.614, 12.630 31.735 C 12.740 28.856, 13.150 23.045, 13.542 18.823 C 14.255 11.127, 13.689 6, 12.126 6 C 11.666 6, 11.019 9.239, 10.687 13.198 C 10.271 18.153, 9.447 21.257, 8.042 23.158 C 6.919 24.676, 6 26.522, 6 27.260 C 6 27.997, 5.465 29.135, 4.810 29.790 C 4.156 30.444, 3.520 31.547, 3.397 32.240 C 3.274 32.933, 2.531 36.200, 1.746 39.500 C 0.186 46.058, 0.240 52.596, 1.899 57.934 C 2.486 59.822, 2.787 61.547, 2.568 61.765 C 1.893 62.440, 5.066 69.327, 7.598 72.683 C 8.919 74.434, 10 76.272, 10 76.768 C 10 77.263, 12.218 79.768, 14.928 82.335 C 19.168 86.349, 20.053 86.804, 21.266 85.591 C 23.079 83.779, 24.479 84.735, 25.526 88.500 C 26.303 91.291, 26.389 91.337, 26.761 89.168 C 26.981 87.885, 26.449 86.048, 25.578 85.086 C 24.708 84.125, 24.237 83.096, 24.533 82.801 C 24.828 82.505, 23.727 81.995, 22.086 81.667 C 18.445 80.939, 11.824 72.983, 8.216 65 C 5.531 59.061, 4.225 47.947, 5.446 41.438 C 6.090 38.005, 6.270 37.842, 7.766 39.337 C 8.782 40.354, 9.511 43.112, 9.719 46.729 C 10.247 55.899, 10.631 58.964, 11.339 59.672 C 11.703 60.036, 12 61.158, 12 62.167 C 12 63.175, 12.477 64, 13.059 64 C 13.641 64, 13.882 64.382, 13.594 64.849 C 13.305 65.315, 13.885 66.573, 14.883 67.644 C 15.881 68.715, 16.878 70.069, 17.099 70.653 C 17.954 72.915, 26.882 82, 28.249 82 C 29.043 82, 31.221 82.762, 33.089 83.694 C 34.957 84.626, 37.737 85.293, 39.268 85.176 C 41.339 85.019, 42.284 85.545, 42.962 87.232 C 43.840 89.416, 44.106 89.341, 44.375 86.833 C 44.444 86.192, 45.063 85.479, 45.750 85.250 C 46.645 84.952, 47.004 86.349, 47.014 90.167 C 47.021 93.100, 47.299 96.513, 47.630 97.750 C 48.284 100.191, 50.882 100.718, 52.800 98.800 C 54.260 97.340, 54.356 96, 53 96 C 52.450 96, 52 96.675, 52 97.500 C 52 98.325, 51.550 99, 51 99 C 50.450 99, 49.971 97.313, 49.936 95.250 C 49.901 93.188, 49.728 90.037, 49.552 88.250 C 49.376 86.463, 49.630 85, 50.116 85 C 50.602 85, 51.037 86.688, 51.082 88.750 L 51.163 92.500 52.709 89 C 54.048 85.969, 54.349 85.759, 54.955 87.434 C 55.442 88.779, 55.881 89.002, 56.397 88.167 C 56.804 87.507, 57.587 87.245, 58.136 87.584 C 58.684 87.923, 59.741 87.368, 60.485 86.352 C 61.228 85.335, 62.169 84.836, 62.576 85.243 C 62.983 85.650, 63.920 85.481, 64.658 84.869 C 65.662 84.036, 66 84.077, 66 85.033 C 66 85.976, 66.457 85.913, 67.750 84.789 C 69.915 82.908, 75 81.604, 75 82.930 C 75 83.463, 73.473 85.063, 71.607 86.486 C 68.430 88.909, 66.172 93, 68.012 93 C 70.153 93, 72 91.618, 72 90.015 C 72 87.651, 74.654 85.365, 75.273 87.197 C 75.515 87.914, 75.595 87.713, 75.450 86.750 C 75.120 84.556, 76.602 84.467, 77.801 86.609 C 78.629 88.089, 78.752 88.089, 79.320 86.609 C 79.659 85.724, 80.531 85, 81.256 85 C 81.982 85, 84.791 82.750, 87.500 80 C 90.209 77.250, 92.099 75, 91.700 75 C 91.301 75, 92.021 73.313, 93.299 71.250 C 96.027 66.847, 97.614 62.845, 98.553 58 C 98.926 56.075, 99.741 53.851, 100.365 53.058 C 101.236 51.951, 101.210 51.791, 100.250 52.367 C 99.563 52.780, 99 52.668, 99 52.118 C 99 51.568, 99.450 50.840, 100 50.500 C 100.550 50.160, 101 49.432, 101 48.882 C 101 48.332, 100.550 48.160, 100 48.500 C 99.450 48.840, 99 48.668, 99 48.118 C 99 47.568, 99.450 46.840, 100 46.500 C 100.550 46.160, 101 45.432, 101 44.882 C 101 44.332, 100.474 44.207, 99.830 44.605 C 99.058 45.082, 98.865 44.795, 99.261 43.762 C 99.592 42.900, 99.584 41.917, 99.244 41.577 C 98.904 41.237, 98.485 40.068, 98.313 38.980 C 97.639 34.716, 97.214 33.342, 95.227 29 C 94.094 26.525, 92.004 23.193, 90.584 21.594 C 87.592 18.230, 87.662 18.577, 89.146 14.472 C 90.503 10.720, 89.575 6, 87.481 6 C 86.666 6, 86 6.702, 86 7.559 C 86 8.416, 86.450 8.840, 87 8.500 C 87.606 8.126, 88 9.525, 88 12.048 C 88 15.340, 87.685 16.093, 86.500 15.638 C 84.475 14.861, 84.579 15.386, 87.630 21.355 C 90.661 27.284, 91.012 32.894, 88.672 38 L 87.068 41.500 87.709 37.500 C 88.739 31.071, 88.347 27.640, 86.104 23.456 C 84.670 20.779, 84 17.713, 84 13.824 C 84 7.989, 82.651 5.373, 81.505 8.985 C 81.153 10.093, 80.221 11, 79.433 11 C 77.794 11, 77.438 15.534, 79 16.500 C 79.550 16.840, 80 17.568, 80 18.118 C 80 18.668, 79.582 18.860, 79.071 18.544 C 78.561 18.229, 77.947 18.990, 77.708 20.235 C 77.468 21.481, 77.211 19.211, 77.136 15.191 C 77.061 11.171, 76.632 8.109, 76.182 8.387 C 75.732 8.665, 74.733 8.017, 73.961 6.946 C 72.020 4.253, 71.333 4.508, 71.333 7.920 C 71.333 9.956, 72.040 11.219, 73.667 12.089 C 74.950 12.776, 76 14.172, 76 15.192 C 76 16.940, 75.857 16.952, 73.500 15.408 L 71 13.770 71 17.525 C 71 19.923, 71.632 21.764, 72.750 22.621 C 74.121 23.672, 74.221 24.146, 73.211 24.814 C 72.231 25.462, 72.175 26.364, 72.978 28.583 L 74.033 31.500 72.039 29 L 70.044 26.500 70.022 32.128 C 69.979 42.985, 74.636 41.530, 75.906 30.289 L 76.500 25.029 78.269 28.129 C 79.741 30.707, 79.783 31.131, 78.519 30.646 C 77.684 30.325, 77 30.499, 77 31.031 C 77 31.564, 77.450 32, 78 32 C 78.550 32, 79 32.661, 79 33.469 C 79 34.363, 78.414 34.712, 77.500 34.362 C 76.479 33.970, 76 34.416, 76 35.758 C 76 38.459, 72.259 43, 70.034 43 C 68.115 43, 66.594 40.466, 67.568 38.891 C 68.194 37.878, 68.857 28.686, 69.341 14.325 C 69.692 3.902, 69.801 4.052, 60.500 2.087 C 52.031 0.297, 47.737 0.200, 41.500 1.658 M 42.638 3.500 C 42.955 4.325, 42.753 5, 42.190 5 C 41.627 5, 40.977 4.437, 40.746 3.750 C 40.286 2.385, 38.267 14.748, 37.301 24.840 C 36.925 28.766, 36.181 31.377, 35.347 31.697 C 34.606 31.981, 34 32.664, 34 33.214 C 34 33.764, 34.726 33.935, 35.614 33.595 C 36.972 33.073, 37.126 33.515, 36.587 36.389 C 35.468 42.352, 40.477 45.254, 43.617 40.462 C 46.150 36.596, 48.224 26.762, 46.710 25.800 C 45.810 25.228, 45.854 25.027, 46.882 25.015 C 49.093 24.991, 47.841 11.524, 45.138 6.250 C 43.039 2.155, 41.452 0.410, 42.638 3.500 M 55.250 5.748 C 54.393 6.035, 54 8.615, 54 13.958 C 54 18.244, 53.708 23.211, 53.351 24.997 L 52.701 28.244 51.386 25.872 C 49.377 22.248, 49.616 26.127, 51.667 30.428 C 53.194 33.630, 53.202 34.257, 51.768 37.908 C 50.329 41.571, 50.336 41.922, 51.852 42.257 C 52.758 42.457, 54.714 42.220, 56.198 41.731 C 60.525 40.303, 62.500 33.714, 62.500 20.706 L 62.500 9.912 64.848 10.500 C 66.361 10.878, 67.062 10.685, 66.819 9.957 C 66.358 8.575, 56.987 5.166, 55.250 5.748 M 32.619 6.714 C 31.732 7.601, 31.853 13, 32.759 13 C 33.177 13, 34.092 12.083, 34.792 10.961 C 35.838 9.286, 35.813 8.671, 34.652 7.509 C 33.874 6.731, 32.960 6.374, 32.619 6.714 M 41.086 7.750 C 41.066 8.713, 40.621 11.975, 40.097 15 C 39.013 21.267, 38.697 37.046, 39.607 39.418 C 40.595 41.992, 41.999 41.246, 43.663 37.264 C 45.764 32.236, 46.668 13.027, 44.994 8.985 C 43.647 5.733, 41.147 4.943, 41.086 7.750 M 56.639 8.499 C 56.041 10.055, 54.595 28.560, 54.534 35.414 C 54.516 37.566, 55.027 39.504, 55.671 39.721 C 56.415 39.971, 56.685 39.272, 56.410 37.807 C 56.172 36.538, 56.245 36.063, 56.572 36.750 C 59.921 43.793, 63.905 18.494, 60.667 10.744 C 59.017 6.797, 57.596 6.005, 56.639 8.499 M 84 26 C 84 26.733, 84.300 27.033, 84.667 26.667 C 85.033 26.300, 85.033 25.700, 84.667 25.333 C 84.300 24.967, 84 25.267, 84 26 M 9 31 C 9 31.733, 9.300 32.033, 9.667 31.667 C 10.033 31.300, 10.033 30.700, 9.667 30.333 C 9.300 29.967, 9 30.267, 9 31 M 42.500 31 C 42.840 31.550, 43.343 32, 43.618 32 C 43.893 32, 43.840 31.550, 43.500 31 C 43.160 30.450, 42.657 30, 42.382 30 C 42.107 30, 42.160 30.450, 42.500 31 M 82.135 31 C 82.017 31.275, 81.777 33.839, 81.601 36.697 C 81.365 40.534, 81.660 42.039, 82.731 42.450 C 84.951 43.302, 86.338 41.975, 84.607 40.654 C 83.775 40.019, 82.926 37.475, 82.722 35 C 82.517 32.525, 82.253 30.725, 82.135 31 M 21.667 39.667 C 21.300 40.033, 21 40.798, 21 41.367 C 21 41.993, 21.466 41.934, 22.183 41.217 C 22.834 40.566, 23.134 39.801, 22.850 39.517 C 22.566 39.233, 22.033 39.300, 21.667 39.667 M 92.310 41.537 C 91.767 42.617, 91.248 46.647, 91.157 50.494 C 91.048 55.105, 90.311 58.933, 88.996 61.733 C 87.898 64.068, 87 66.385, 87 66.882 C 87 67.379, 86.325 68.045, 85.500 68.362 C 84.675 68.678, 84 69.519, 84 70.230 C 84 70.940, 82.448 73.317, 80.551 75.511 C 78.655 77.705, 77.477 79.874, 77.934 80.332 C 80.159 82.561, 87.909 73.269, 91.762 63.752 C 94.513 56.957, 95.760 46.019, 94.239 42.037 C 93.341 39.685, 93.254 39.662, 92.310 41.537 M 15.741 45.881 C 14.469 50.745, 18.025 62.013, 23.064 69.090 C 24.678 71.357, 25.510 71.821, 26.494 71.005 C 28.504 69.337, 27.211 66.569, 23.486 64.563 C 19.218 62.264, 17.822 58.538, 19.198 53.116 C 20.381 48.459, 19.598 44, 17.598 44 C 16.847 44, 16.012 44.846, 15.741 45.881 M 80.607 45.580 C 80.274 46.450, 80.288 50.245, 80.638 54.015 L 81.275 60.870 76.888 63.685 C 72.587 66.444, 71.730 68.184, 73.376 70.815 C 76.404 75.654, 86.257 53.855, 84.395 46.436 C 83.704 43.686, 81.524 43.193, 80.607 45.580 M -0 46 C -0 46.733, 0.300 47.033, 0.667 46.667 C 1.033 46.300, 1.033 45.700, 0.667 45.333 C 0.300 44.967, -0 45.267, -0 46 M -0 50 C -0 50.733, 0.300 51.033, 0.667 50.667 C 1.033 50.300, 1.033 49.700, 0.667 49.333 C 0.300 48.967, -0 49.267, -0 50 M 6.500 52 C 6.840 52.550, 7.316 53, 7.559 53 C 7.802 53, 8 52.550, 8 52 C 8 51.450, 7.523 51, 6.941 51 C 6.359 51, 6.160 51.450, 6.500 52 M 42.459 54.067 C 42.096 54.653, 42.014 55.348, 42.276 55.610 C 42.538 55.872, 43.019 55.392, 43.345 54.543 C 44.021 52.781, 43.445 52.471, 42.459 54.067 M 7 55 C 7 55.550, 7.477 56, 8.059 56 C 8.641 56, 8.840 55.550, 8.500 55 C 8.160 54.450, 7.684 54, 7.441 54 C 7.198 54, 7 54.450, 7 55 M 48.244 54.500 C 48.420 55.050, 49.190 56.750, 49.955 58.277 C 50.944 60.252, 51.036 61.364, 50.274 62.126 C 49.512 62.888, 49.009 62.319, 48.534 60.156 C 48.074 58.058, 47.418 57.286, 46.422 57.668 C 45.374 58.070, 45.143 57.711, 45.582 56.361 C 46.122 54.699, 45.989 54.721, 44.343 56.564 C 43.329 57.700, 41.332 59.352, 39.903 60.237 C 37.292 61.854, 34.209 67.543, 35.334 68.668 C 35.666 68.999, 37.061 68.535, 38.434 67.635 C 41.751 65.462, 42.654 65.571, 43.350 68.230 C 43.970 70.600, 39.815 76, 37.372 76 C 34.468 76, 35.124 78.154, 38.451 79.544 C 41.115 80.657, 42.557 80.772, 44.023 79.988 C 46.224 78.810, 46.660 76.387, 44.783 75.761 C 44.025 75.508, 44.776 74.065, 46.779 71.928 C 48.545 70.042, 49.993 69.111, 49.995 69.857 C 49.998 70.603, 50.609 70.980, 51.353 70.695 C 52.097 70.409, 53.439 71.032, 54.336 72.079 C 55.668 73.635, 55.753 74.447, 54.805 76.528 C 53.859 78.605, 53.936 79.365, 55.224 80.653 C 56.633 82.062, 57.272 82.076, 61.152 80.783 C 66.537 78.989, 67.509 76.252, 63.075 75.365 C 61.384 75.027, 60 74.330, 60 73.816 C 60 73.302, 59.582 73.140, 59.072 73.456 C 58.562 73.771, 57.856 73.123, 57.505 72.015 C 57.153 70.907, 55.996 70, 54.933 70 C 53.870 70, 53 69.550, 53 69 C 53 68.450, 52.663 68.053, 52.250 68.118 C 50.295 68.427, 49.987 67.870, 51.357 66.500 C 52.182 65.675, 53.339 65, 53.929 65 C 54.518 65, 55 64.550, 55 64 C 55 63.450, 54.523 63, 53.941 63 C 53.359 63, 53.150 62.566, 53.477 62.036 C 53.805 61.507, 55.911 62.857, 58.157 65.036 C 60.403 67.216, 62.651 69, 63.152 69 C 64.951 69, 65.114 66.122, 63.494 62.988 C 62.097 60.288, 61.393 59.862, 58.922 60.225 C 56.945 60.515, 56 60.224, 56 59.327 C 56 58.596, 54.931 58, 53.622 58 C 52.314 58, 50.497 56.987, 49.584 55.750 C 48.670 54.513, 48.067 53.950, 48.244 54.500 M 51.333 55.667 C 51.700 56.033, 52.300 56.033, 52.667 55.667 C 53.033 55.300, 52.733 55, 52 55 C 51.267 55, 50.967 55.300, 51.333 55.667 M 54.813 55.683 C 55.534 55.972, 56.397 55.936, 56.729 55.604 C 57.061 55.272, 56.471 55.036, 55.417 55.079 C 54.252 55.127, 54.015 55.364, 54.813 55.683 M 44 59.833 C 44 60.292, 44.675 60.667, 45.500 60.667 C 46.325 60.667, 47 60.292, 47 59.833 C 47 59.375, 46.325 59, 45.500 59 C 44.675 59, 44 59.375, 44 59.833 M 39.084 63.250 C 38.616 64.487, 38.395 65.677, 38.592 65.893 C 39.251 66.612, 42 63.776, 42 62.378 C 42 60.188, 40.019 60.780, 39.084 63.250 M 46 66 C 46 66.733, 46.300 67.033, 46.667 66.667 C 47.033 66.300, 47.033 65.700, 46.667 65.333 C 46.300 64.967, 46 65.267, 46 66 M 46 69 C 46 69.733, 46.300 70.033, 46.667 69.667 C 47.033 69.300, 47.033 68.700, 46.667 68.333 C 46.300 67.967, 46 68.267, 46 69 M 15 73.819 C 15 75.027, 16.897 76.436, 17.591 75.743 C 17.842 75.491, 17.362 74.716, 16.524 74.020 C 15.574 73.231, 15 73.155, 15 73.819 M 17 87 C 17 87.733, 17.300 88.033, 17.667 87.667 C 18.033 87.300, 18.033 86.700, 17.667 86.333 C 17.300 85.967, 17 86.267, 17 87 M 22.500 87 C 22.160 87.550, 22.359 88, 22.941 88 C 23.523 88, 24 87.550, 24 87 C 24 86.450, 23.802 86, 23.559 86 C 23.316 86, 22.840 86.450, 22.500 87 M 31.250 87.662 C 29.603 88.327, 29.658 90.471, 31.357 91.881 C 32.450 92.789, 32.693 92.425, 32.607 90.006 C 32.548 88.355, 32.500 87.039, 32.500 87.081 C 32.500 87.123, 31.938 87.385, 31.250 87.662 M 34 87.919 C 34 89.325, 37.401 94.987, 38.250 94.994 C 39.949 95.008, 38.884 90.783, 37.069 90.308 C 35.921 90.008, 35.356 89.235, 35.676 88.401 C 35.972 87.631, 35.716 87, 35.107 87 C 34.498 87, 34 87.414, 34 87.919 M 88 89 C 88 89.733, 88.300 90.033, 88.667 89.667 C 89.033 89.300, 89.033 88.700, 88.667 88.333 C 88.300 87.967, 88 88.267, 88 89 M 58.011 91.479 C 57.270 92.864, 56.964 94.298, 57.332 94.665 C 57.699 95.033, 58 94.822, 58 94.198 C 58 93.574, 58.675 93.322, 59.500 93.638 C 61.127 94.263, 61.502 92.339, 60.164 90.231 C 59.579 89.309, 58.990 89.650, 58.011 91.479 M 63.219 89.855 C 62.303 90.428, 62.203 91.348, 62.869 93.078 C 63.660 95.136, 63.903 95.246, 64.484 93.808 C 65.505 91.288, 64.741 88.902, 63.219 89.855 M 40.700 91.341 C 40.005 93.150, 41.943 96.017, 42.662 94.244 C 42.942 93.553, 43.594 93.249, 44.110 93.568 C 45.357 94.339, 44.784 91.709, 43.500 90.765 C 42.028 89.684, 41.276 89.838, 40.700 91.341 M 55 92 C 55 92.733, 55.300 93.033, 55.667 92.667 C 56.033 92.300, 56.033 91.700, 55.667 91.333 C 55.300 90.967, 55 91.267, 55 92 M 36 97 C 36 97.733, 36.300 98.033, 36.667 97.667 C 37.033 97.300, 37.033 96.700, 36.667 96.333 C 36.300 95.967, 36 96.267, 36 97 M 80.543 96.931 C 80.226 97.443, 80.425 98.144, 80.984 98.490 C 81.543 98.835, 82 98.416, 82 97.559 C 82 95.802, 81.400 95.544, 80.543 96.931 M 99.500 97 C 99.840 97.550, 100.316 98, 100.559 98 C 100.802 98, 101 97.550, 101 97 C 101 96.450, 100.523 96, 99.941 96 C 99.359 96, 99.160 96.450, 99.500 97 M 11.500 99 C 11.840 99.550, 12.343 100, 12.618 100 C 12.893 100, 12.840 99.550, 12.500 99 C 12.160 98.450, 11.657 98, 11.382 98 C 11.107 98, 11.160 98.450, 11.500 99" stroke="none" fill="#90cfe4" fill-rule="evenodd"/></svg>